<?xml version="1.0" encoding="UTF-8"?>
<svg version="1.1" xmlns="http://www.w3.org/2000/svg" width="720" height="720">
<path d="M0 0 C0.70560059 0.33499512 1.41120117 0.66999023 2.13818359 1.01513672 C14.0530315 6.68605106 26.6399157 12.74931431 37 21 C35.69107816 25.25300855 34.06045 29.02565987 31.9453125 32.9375 C31.3361499 34.06945801 30.7269873 35.20141602 30.09936523 36.36767578 C29.44142086 37.57854692 28.78329517 38.78931954 28.125 40 C27.44895389 41.25095227 26.77325774 42.50209372 26.09790039 43.75341797 C24.39430637 46.90688086 22.68475926 50.0570736 20.97357178 53.2064209 C19.4953309 55.9297352 18.02352902 58.65652466 16.55078125 61.3828125 C15.51353107 63.29715155 14.47580043 65.21123038 13.4375 67.125 C12.97424316 67.9809375 12.51098633 68.836875 12.03369141 69.71875 C8.84161236 75.57416589 5.46995454 81.30513448 2 87 C1.4946875 86.65259766 0.989375 86.30519531 0.46875 85.94726562 C-38.42929914 59.36967908 -85.55091359 40.64261209 -133.4140625 48.25 C-147.94777546 51.28973081 -162.34444035 56.03920105 -171 69 C-177.13546982 80.36020584 -178.89390121 92.53049396 -176.3515625 105.2421875 C-171.6574947 119.40463138 -161.07712485 126.29667128 -148.44921875 132.83984375 C-131.25922788 141.08076425 -112.29605385 145.43110501 -93.93383789 150.23071289 C13.88586078 178.41602087 13.88586078 178.41602087 39.92919922 222.11230469 C54.36760883 247.56551562 56.45873579 283.86759435 49 312 C48.80664062 312.73283203 48.61328125 313.46566406 48.4140625 314.22070312 C44.08069088 329.93586254 36.76482645 343.73110599 26 356 C25.36449219 356.76699219 24.72898437 357.53398437 24.07421875 358.32421875 C-0.2347206 387.01753594 -41.40111704 398.54851588 -77.51651001 401.82278442 C-86.15889056 402.43948288 -94.84081182 402.3433027 -103.5 402.3125 C-104.5617041 402.31067719 -105.6234082 402.30885437 -106.71728516 402.30697632 C-122.34010659 402.26179729 -137.59812912 401.84756812 -153 399 C-153.96550781 398.82839355 -154.93101562 398.65678711 -155.92578125 398.47998047 C-199.09142353 390.64885957 -242.5108432 375.33347753 -278 349 C-277.37583369 344.64365767 -275.73246995 341.05904448 -273.75390625 337.1796875 C-273.42711884 336.52762329 -273.10033142 335.87555908 -272.76364136 335.20373535 C-271.70263216 333.09105401 -270.63283317 330.98297075 -269.5625 328.875 C-268.8285222 327.41895148 -268.09488102 325.96273324 -267.36157227 324.50634766 C-262.715238 315.29714273 -257.97372734 306.14157705 -253.12890625 297.03515625 C-249.96922804 291.08220181 -246.97828977 285.04533652 -244 279 C-239.89674281 280.43763755 -236.76175238 282.45261486 -233.25 285 C-190.8672273 314.85411218 -132.23214336 336.21038763 -79.77441406 327.63623047 C-65.432651 325.04148382 -51.78698789 321.57750254 -42 310 C-35.55898402 299.79407243 -33.40731895 289.27264308 -35.4609375 277.31640625 C-38.92767393 264.24477064 -47.99178418 255.84296767 -59.25 249 C-79.33658111 237.70198754 -102.74402307 232.20466657 -124.75 225.921875 C-226.71138608 196.80321899 -226.71138608 196.80321899 -250 158 C-264.88955756 130.66396085 -265.3493678 95.69815977 -256.6953125 66.17578125 C-246.40899386 33.98769428 -224.77071383 9.48058303 -194.91552734 -6.08691406 C-134.13665841 -36.93075691 -59.80183523 -28.83464327 0 0 Z " fill="#000000" transform="translate(476,64)"/>
<path d="M0 0 C104.61 0 209.22 0 317 0 C317 20.13 317 40.26 317 61 C212.39 61 107.78 61 0 61 C0 40.87 0 20.74 0 0 Z " fill="#000000" transform="translate(206,497)"/>
<path d="M0 0 C44.44525547 0 44.44525547 0 52.75390625 7.60546875 C58.20287144 13.55337533 59.47894908 19.21899532 59.31640625 27.18359375 C58.53004203 34.18320617 55.39116277 39.50736436 50 44 C48.03588109 45.41156536 46.05061135 46.71240683 44 48 C44.41975098 48.43465576 44.83950195 48.86931152 45.27197266 49.31713867 C50.63111981 55.11979635 54.48472878 61.46512496 58.375 68.3125 C59.00277344 69.39595703 59.63054687 70.47941406 60.27734375 71.59570312 C64.8429213 79.5287639 64.8429213 79.5287639 66 83 C62.93654856 83.10822792 59.8769399 83.18741479 56.8125 83.25 C55.94818359 83.28351563 55.08386719 83.31703125 54.19335938 83.3515625 C52.93168945 83.37089844 52.93168945 83.37089844 51.64453125 83.390625 C50.87471924 83.41157227 50.10490723 83.43251953 49.31176758 83.45410156 C46.00363783 82.80428412 44.41263182 81.32282315 42 79 C40.27075195 76.37451172 40.27075195 76.37451172 38.73828125 73.4296875 C38.17689453 72.36878906 37.61550781 71.30789063 37.03710938 70.21484375 C36.46798828 69.11269531 35.89886719 68.01054688 35.3125 66.875 C34.16575361 64.6833271 33.01615295 62.49314454 31.86328125 60.3046875 C31.36094971 59.33515137 30.85861816 58.36561523 30.34106445 57.36669922 C29.08818383 54.91044642 29.08818383 54.91044642 27 53 C24.36 52.67 21.72 52.34 19 52 C19 62.23 19 72.46 19 83 C12.73 83 6.46 83 0 83 C0 55.61 0 28.22 0 0 Z M19 14 C19 22.25 19 30.5 19 39 C22.0628125 39.0928125 22.0628125 39.0928125 25.1875 39.1875 C26.91033203 39.23970703 26.91033203 39.23970703 28.66796875 39.29296875 C33.03362706 38.90911837 35.48392627 37.29949177 38.75 34.5 C41.34368039 31.38758353 41.27934889 27.90223805 41.21484375 23.99609375 C40.89350529 21.01056732 39.90308743 19.29682965 38 17 C33.85959037 13.87969129 30.80536206 13.66900854 25.6875 13.8125 C23.480625 13.874375 21.27375 13.93625 19 14 Z " fill="#030303" transform="translate(395,589)"/>
<path d="M0 0 C6.27 0 12.54 0 19 0 C23.49984838 8.99969675 23.49984838 8.99969675 25.16308594 13.44018555 C25.53737732 14.43289963 25.9116687 15.42561371 26.29730225 16.44841003 C26.68903625 17.50055191 27.08077026 18.55269379 27.484375 19.63671875 C28.11330658 21.30961723 28.11330658 21.30961723 28.75494385 23.01631165 C30.09070554 26.5718606 31.42052927 30.1295946 32.75 33.6875 C34.06219479 37.18692857 35.37561197 40.68589672 36.68908691 44.18484497 C37.54850306 46.47514323 38.40715317 48.76572908 39.26501465 51.05661011 C42.36490248 59.33063484 45.50103911 67.59030713 48.67718506 75.83537292 C51 81.89259639 51 81.89259639 51 83 C48.24894578 83.10812003 45.50214913 83.18734945 42.75 83.25 C41.97269531 83.28351563 41.19539063 83.31703125 40.39453125 83.3515625 C34.66094667 83.44957249 34.66094667 83.44957249 31.59375 81.36328125 C29.74365651 78.61988282 28.73609497 76.09535175 27.75 72.9375 C27.41484375 71.89464844 27.0796875 70.85179687 26.734375 69.77734375 C26 67 26 67 26 64 C15.44 64 4.88 64 -6 64 C-6.99 67.63 -7.98 71.26 -9 75 C-11.34146341 80.56097561 -11.34146341 80.56097561 -15 83 C-17.76655324 83.14245897 -20.42653306 83.18769445 -23.1875 83.125 C-23.93708984 83.11597656 -24.68667969 83.10695313 -25.45898438 83.09765625 C-27.30612654 83.07412578 -29.15310412 83.03825561 -31 83 C-28.85467138 75.3757055 -26.20595489 68.01276289 -23.359375 60.625 C-22.91410461 59.46105713 -22.46883423 58.29711426 -22.0100708 57.09790039 C-20.83171491 54.01980927 -19.65023292 50.94294323 -18.46722412 47.86663818 C-17.28649733 44.79369398 -16.11034354 41.71900014 -14.93359375 38.64453125 C-9.99393123 25.74804211 -5.01880549 12.86588812 0 0 Z M9 18 C7.57007953 22.21560331 6.14608199 26.43314642 4.72753906 30.65258789 C4.24413754 32.08770643 3.75912183 33.52228229 3.27246094 34.95629883 C2.57321879 37.01763614 1.87980523 39.08085542 1.1875 41.14453125 C0.76855469 42.38565674 0.34960938 43.62678223 -0.08203125 44.90551758 C-1.14219868 47.94139187 -1.14219868 47.94139187 -1 51 C6.26 51 13.52 51 21 51 C19.10299089 43.52355235 16.8360561 36.2044375 14.4375 28.875 C14.13255615 27.9260083 13.8276123 26.9770166 13.51342773 25.99926758 C13.21895752 25.11005615 12.9244873 24.22084473 12.62109375 23.3046875 C12.3573999 22.50015137 12.09370605 21.69561523 11.82202148 20.86669922 C11.15386224 18.81095623 11.15386224 18.81095623 9 18 Z " fill="#030303" transform="translate(343,589)"/>
<path d="M0 0 C1.65234375 1.09375 1.65234375 1.09375 3.83984375 2.84375 C2.88367578 7.45829977 0.85118989 11.22672235 -2.16015625 14.84375 C-4.47265625 15.59375 -4.47265625 15.59375 -7.16015625 14.84375 C-8.39610819 14.18974852 -9.62461137 13.5215821 -10.84765625 12.84375 C-16.67025539 9.71700321 -22.91324147 10.0814323 -29.16015625 11.84375 C-29.34578125 13.101875 -29.53140625 14.36 -29.72265625 15.65625 C-29.82707031 16.36394531 -29.93148437 17.07164062 -30.0390625 17.80078125 C-30.29920424 20.0462842 -30.29920424 20.0462842 -29.16015625 22.84375 C-25.34476007 25.10184162 -21.48773396 26.74952959 -17.31640625 28.22265625 C-1.42706827 33.83448491 -1.42706827 33.83448491 3.71484375 41.71875 C6.58592359 49.69397177 6.15846556 56.96604371 3.05859375 64.82421875 C-0.6376131 72.04138125 -6.70802234 76.22170288 -14.16015625 78.84375 C-24.82815821 81.93185583 -35.95681758 78.92304785 -45.5 73.828125 C-47.50699991 72.63809211 -49.36751498 71.33761772 -51.16015625 69.84375 C-49.70512405 65.72115877 -47.88813023 62.27320301 -45.16015625 58.84375 C-41.9236574 57.63006293 -40.59039406 57.65449405 -37.3984375 59.05859375 C-36.43292969 59.62707031 -35.46742188 60.19554687 -34.47265625 60.78125 C-28.91557041 63.7345225 -24.41302846 65.02182737 -18.16015625 63.84375 C-15.94242734 63.08960174 -15.94242734 63.08960174 -14.16015625 61.84375 C-12.96260808 58.25110548 -12.82920667 55.61657526 -13.16015625 51.84375 C-16.49404759 47.07840947 -21.62338645 46.15857559 -26.91015625 44.53125 C-34.96715834 41.8676297 -41.66897672 39.54884825 -46.28125 32.01171875 C-49.3175582 25.38581952 -49.23439818 17.318597 -46.97265625 10.46875 C-45.38393195 6.81393822 -43.19669999 4.44650178 -40.16015625 1.84375 C-39.43828125 1.1425 -38.71640625 0.44125 -37.97265625 -0.28125 C-26.41778292 -7.98449888 -11.83146754 -6.33293742 0 0 Z " fill="#040404" transform="translate(255.16015625,593.15625)"/>
<path d="M0 0 C21.12 0 42.24 0 64 0 C64 4.95 64 9.9 64 15 C56.41 15 48.82 15 41 15 C41 37.44 41 59.88 41 83 C35.06 83 29.12 83 23 83 C23 60.56 23 38.12 23 15 C15.41 15 7.82 15 0 15 C0 10.05 0 5.1 0 0 Z " fill="#000000" transform="translate(455,589)"/>
<path d="M0 0 C21.12 0 42.24 0 64 0 C64 4.95 64 9.9 64 15 C56.41 15 48.82 15 41 15 C41 37.44 41 59.88 41 83 C35.06 83 29.12 83 23 83 C23 60.56 23 38.12 23 15 C15.41 15 7.82 15 0 15 C0 10.05 0 5.1 0 0 Z " fill="#000000" transform="translate(260,589)"/>
<path d="M0 0 C0.66 0.33 1.32 0.66 2 1 C0.86032979 4.19107659 -0.01892978 5.01143674 -3 6.8125 C-6.73112437 9.53311152 -7.14605461 11.55948398 -8 16 C-8.33 15.34 -8.66 14.68 -9 14 C-9.99 13.67 -10.98 13.34 -12 13 C-8.19524578 8.43969176 -4.25030379 4.14910608 0 0 Z " fill="#111111" transform="translate(255,75)"/>
<path d="M0 0 C1.32 0.66 2.64 1.32 4 2 C2.515 4.475 2.515 4.475 1 7 C-0.65 6.01 -2.3 5.02 -4 4 C-2.68 3.34 -1.36 2.68 0 2 C0 1.34 0 0.68 0 0 Z " fill="#0D0D0D" transform="translate(477,144)"/>
<path d="M0 0 C0 0.99 0 1.98 0 3 C-0.66 3 -1.32 3 -2 3 C-2 3.66 -2 4.32 -2 5 C-4.31 5.66 -6.62 6.32 -9 7 C-8 4 -8 4 -6.15234375 2.83203125 C-5.42144531 2.49558594 -4.69054687 2.15914062 -3.9375 1.8125 C-3.20402344 1.46832031 -2.47054688 1.12414063 -1.71484375 0.76953125 C-1.14894531 0.51558594 -0.58304687 0.26164062 0 0 Z " fill="#0B0B0B" transform="translate(287,55)"/>
<path d="M0 0 C0.99 0.33 1.98 0.66 3 1 C2.34 2.32 1.68 3.64 1 5 C-1.475 4.01 -1.475 4.01 -4 3 C-2.1875 1.4375 -2.1875 1.4375 0 0 Z " fill="#0E0E0E" transform="translate(243,434)"/>
<path d="M0 0 C1.65 0.33 3.3 0.66 5 1 C4.34 2.32 3.68 3.64 3 5 C2.01 5 1.02 5 0 5 C-0.33 4.01 -0.66 3.02 -1 2 C-0.67 1.34 -0.34 0.68 0 0 Z " fill="#060606" transform="translate(218,371)"/>
</svg>